<svg xmlns="http://www.w3.org/2000/svg" version="1.1" xmlns:xlink="http://www.w3.org/1999/xlink" width="1500" height="276" viewBox="0 0 1500 276"><svg xml:space="preserve" width="1500" height="276" data-version="2" data-id="lg_nTXvFSGxLmAeAtYU6F" viewBox="0 0 666 276" x="0" y="0"><rect width="100%" height="100%" fill="transparent"></rect><path fill="#41a5cc" d="M154.935 175.47h-10.05v-51.52q0-11.12 7.19-18.14 7.18-7.02 17.76-7.02 11.67 0 17.55 5.88 5.89 5.89 5.89 14.42 0 10.91-10.15 15.66v.43q13.93 4 13.93 19.33 0 20.96-24.73 20.96h-13.5v-9.51h13.39q7.45 0 10.91-3.02 3.45-3.03 3.45-9.72 0-5.83-3.72-8.97-3.73-3.13-10.1-3.13h-10.69v-8.96h6.91q5.83 0 9.99-3.19 4.16-3.18 4.16-8.58 0-5.19-3.19-8.64-3.19-3.46-10.31-3.46-6.48 0-10.59 4.05-4.1 4.05-4.1 11.83Z"></path><rect width="52.17" height="76.68" x="-26.09" y="-38.34" fill="none" rx="0" ry="0" transform="translate(171.47 137.63)"></rect><path fill="#41a5cc" d="M214.335 130.43q7.56-7.88 18.9-7.88 5.51 0 10.31 2.1 4.81 2.11 8.43 5.78 3.61 3.67 5.67 8.59 2.05 4.91 2.05 10.53 0 5.61-2 10.53-2 4.91-5.56 8.58-3.57 3.67-8.43 5.78-4.86 2.11-10.47 2.11-5.73 0-10.53-2.11-4.81-2.11-8.37-5.78-3.57-3.67-5.56-8.58-2-4.92-2-10.53 0-11.45 7.56-19.12m18.9 1.19q-7.56 0-12.15 4.97-4.59 4.96-4.59 12.96 0 7.99 4.59 12.96 4.59 4.96 12.15 4.96 7.67 0 12.2-5.02 4.54-5.02 4.54-12.9 0-7.89-4.54-12.91-4.53-5.02-12.2-5.02"></path><rect width="52.92" height="54" x="-26.46" y="-27" fill="none" rx="0" ry="0" transform="translate(233.74 150.05)"></rect><path fill="#41a5cc" d="M314.015 175.47h-18.68q-11.99 0-17.17-3.57-4.65-3.13-5.89-7.5-1.24-4.38-1.24-11.51v-29.26h9.5v29.16q0 1.94.11 3.29t.76 3.46q.64 2.1 1.83 3.45t3.46 2.38q2.27 1.02 5.51 1.02h12.31v-42.76h9.5Z"></path><rect width="42.98" height="51.84" x="-21.49" y="-25.92" fill="none" rx="0" ry="0" transform="translate(293.02 150.05)"></rect><path fill="#41a5cc" d="M325.895 175.47v-29.49q0-12.42 4.65-17.17 2.26-2.38 5.5-3.56 3.24-1.19 5.67-1.41 2.43-.21 6.65-.21h9.5v9.07h-11.45q-2.16 0-3.35.11-1.18.1-2.8.75-1.62.65-2.81 2.05-2.05 2.6-2.05 10.37v29.49Z"></path><rect width="31.97" height="51.84" x="-15.98" y="-25.92" fill="none" rx="0" ry="0" transform="translate(342.38 150.05)"></rect><path fill="#41a5cc" d="M400.845 123.63v9.07h-19.11q-3.13 0-5.4 1.19-2.27 1.18-2.27 3.34 0 1.3.54 2.33.54 1.02 1.24 1.67.7.65 2.16 1.35 1.46.7 2.27.97t6.86 2.22q6.05 1.94 8.96 3.24 2.92 1.29 4.48 3.51 1.57 2.21 2 4.32.43 2.1.43 4.15 0 14.48-19.87 14.48h-18.68v-9.08h18.68q10.15 0 10.15-5.4 0-2.59-2.97-4.32-2.97-1.72-7.23-2.91-4.27-1.19-8.53-2.76-4.27-1.56-7.24-5.07-2.97-3.51-2.97-8.7 0-6.58 5.08-10.09 5.07-3.51 12.31-3.51Z"></path><rect width="38.66" height="51.84" x="-19.33" y="-25.92" fill="none" rx="0" ry="0" transform="translate(384.18 150.05)"></rect><path fill="#41a5cc" d="M427.845 175.47h-9.5V132.7h-8.86l4.32-9.07h14.04Zm-9.93-62.64q-1.41-1.84-1.41-4t1.41-3.94q1.4-1.78 4.32-1.78 2.91 0 4.32 1.78 1.4 1.78 1.4 3.94t-1.4 3.94q-1.41 1.78-4.32 1.78-2.92 0-4.32-1.72"></path><rect width="18.47" height="72.36" x="-9.23" y="-36.18" fill="none" rx="0" ry="0" transform="translate(419.22 139.79)"></rect><path fill="#41a5cc" d="m436.925 132.7 19.33-19.33v10.26h14.58v9.07h-14.58v22.25q0 3.78 1.24 6.26t3.62 3.51q2.37 1.03 4.48 1.35 2.11.32 5.24.32v9.08q-12.42 0-18.36-4.76-5.94-4.75-5.94-15.76V132.7Z"></path><rect width="33.91" height="62.1" x="-16.95" y="-31.05" fill="none" rx="0" ry="0" transform="translate(454.38 144.92)"></rect><path fill="#41a5cc" d="M479.475 175.47v-29.49q0-12.42 4.64-17.17 2.27-2.38 5.51-3.56 3.24-1.19 5.67-1.41 2.43-.21 6.64-.21h9.51v9.07h-11.45q-2.16 0-3.35.11-1.19.1-2.81.75t-2.81 2.05q-2.05 2.6-2.05 10.37v29.49Z"></path><rect width="31.97" height="51.84" x="-15.98" y="-25.92" fill="none" rx="0" ry="0" transform="translate(495.96 150.05)"></rect><path fill="#41a5cc" d="M547.295 145.01v9.72q-4.1-3.13-10.04-3.13-5.08 0-7.89 2-2.8 1.99-2.8 5.67 0 7.12 10.58 7.12h14.26v-20.62q0-13.07-12.75-13.07h-17.28v-9.07h17.82q10.48 0 16.09 5.18 5.62 5.18 5.62 14.9v31.76h-24.08q-9.18 0-14.58-4.11-5.4-4.1-5.4-11.99 0-7.88 5.72-11.98 5.72-4.11 14.36-4.11 4.86 0 10.37 1.73"></path><rect width="44.06" height="51.84" x="-22.03" y="-25.92" fill="none" rx="0" ry="0" transform="translate(539.38 150.05)"></rect><path fill="#ffdc00" d="M277.502 55.47V2.483H6.47v271.032h271.032V220.53h-4.413v48.573H10.883V6.897h262.206v48.572z"></path><path fill="#41a5cc" d="m627.818 100.721-29.775 11.375c-.702.198-1.507.693-2.406 1.451-.464.39-.945.82-1.55 1.418l-.626.627-.1.132-10.715 14.308c-2.142 3.21-2.523 7.185-1.055 10.75.363.907 1.08 2.39 2.274 4.714.51.991 2.382 4.579 3.397 6.529-2.84 3.216-4.616 7.403-4.616 12.068a18.194 18.194 0 0 0 18.267 18.266c10.144 0 18.232-8.121 18.232-18.266 0-.67-.127-1.3-.197-1.946l19.685-10.122c1.88-.942 3.355-2.252 4.55-3.924l.066-.132c5.345-10.062 10.928-21.419 14.968-31.224.46-.729.739-1.19.956-1.714l.363-.924-.132-.066c-1.755 2.537-3.524 4.737-5.143 6.33-3.755 8.625-8.26 17.937-12.793 26.477-1.004 1.406-2.226 2.513-3.792 3.297l-31.554 16.256c-3.06 1.611-6.638.373-8.31-2.802-2.094-3.84-.548-8.644 3.726-10.782l13.256-7.023 10.419-15.629h-.1l3.265-4.352-22.092 1.682s-8.787 6.813-9.462 9.034c-.209.684 2.435 5.416 4.714 9.363-.212-.006-.411-.065-.625-.065-1.238 0-2.43.133-3.595.363-.032.006-.068-.006-.098 0-.358.072-.674.236-1.024.329-.7.186-1.412.362-2.076.627-.546.217-1.066.491-1.583.758-.47.245-.939.473-1.384.758-.576.363-1.087.798-1.616 1.22-.233.189-.503.328-.725.528-.827-1.589-2.523-4.843-3.067-5.902-1.162-2.262-1.843-3.684-2.176-4.517-1.205-2.928-.893-6.162.824-8.738l10.683-14.276.495-.496c.568-.562 1.005-.97 1.418-1.318.69-.583 1.272-.929 1.714-1.056l24.4-9.33c1.6-1.488 3.138-2.83 4.714-4.056Zm-26.905 49.162c.477 0 .926.077 1.384.132l-1.715.923c-5.317 2.659-7.279 8.768-4.616 13.65.739 1.405 1.823 2.415 3.034 3.198v5.836h3.792v-4.583c1.441.101 2.914-.053 4.318-.791l7.98-4.089c-.036 7.882-6.287 14.112-14.177 14.112-7.914 0-14.213-6.264-14.213-14.177 0-7.913 6.3-14.212 14.213-14.212Zm3.197 4.286c-.44-.098-.87-.043-1.32.165-3.03 1.193-4.422 4.67-3.032 7.681 1.153 3.004 4.66 4.43 7.683 3.035 1.827-.914 1.62-3.657.33-6.627-.981-2.258-2.277-3.949-3.661-4.254m-.461 2.077c.02-.01.253.064.659.495.534.564 1.103 1.475 1.55 2.506.45 1.034.731 2.089.791 2.901.028.375-.004.662-.065.857-.034.105-.032.13-.034.132-1.889.871-4.106.011-4.846-1.912-.918-1.992-.068-4.21 1.846-4.946z"></path></svg></svg>